<?xml version="1.0" encoding="UTF-8" standalone="no"?>
<!DOCTYPE svg PUBLIC "-//W3C//DTD SVG 1.1//EN" "http://www.w3.org/Graphics/SVG/1.1/DTD/svg11.dtd">
<svg width="100%" height="100%" viewBox="0 0 2610 1230" version="1.1" xmlns="http://www.w3.org/2000/svg" xmlns:xlink="http://www.w3.org/1999/xlink" xml:space="preserve" xmlns:serif="http://www.serif.com/" style="fill-rule:evenodd;clip-rule:evenodd;stroke-linecap:round;stroke-linejoin:round;stroke-miterlimit:5;">
    <g transform="matrix(1,0,0,1,297.068,146.463)">
        <g transform="matrix(0.742236,0,0,0.837379,451.599,-19.7728)">
            <rect x="625.306" y="284.361" width="523.314" height="669.582" style="fill:url(#_Radial1);"/>
        </g>
        <g transform="matrix(1.2815,0,0,1.14564,-53.4764,-501.296)">
            <path d="M669.357,555.017C766.034,485.37 846.329,483.364 925.088,528.098C1017.48,580.576 1091.83,594.045 1186.2,542.903" style="fill:none;stroke:rgb(32,145,200);stroke-width:85.7px;"/>
        </g>
        <g transform="matrix(1.16873,0,0,1.14564,60.65,-467.904)">
            <path d="M689.546,518.676C752.575,537.862 851.357,585.716 939.893,522.714C1004.29,476.889 1132.87,471.563 1212.44,540.211" style="fill:none;stroke:rgb(157,235,255);stroke-width:90.01px;"/>
        </g>
        <g transform="matrix(1.17895,0,0,-1.14564,27.2978,837.872)">
            <path d="M689.546,518.676C752.575,537.862 814.291,471.355 939.893,522.714C1081.05,580.432 1132.87,471.563 1212.44,540.211" style="fill:none;stroke:rgb(32,145,200);stroke-width:89.61px;"/>
        </g>
        <g transform="matrix(1.14564,0,0,1.14564,-489.741,321.807)">
            <path d="M1299.77,629.371L979.949,-265.405L1175.87,-265.405L1402.31,396.827L1621.43,-265.405L1813.08,-265.405L1492.64,629.371L1299.77,629.371Z" style="fill:rgb(51,51,51);fill-rule:nonzero;"/>
        </g>
    </g>
    <g transform="matrix(1.63748,0,0,1.47028,-643.101,351.114)">
        <path d="M693.869,111.543L842.947,111.543L842.947,209.102L589.733,209.102C593.387,198.14 598.137,186.813 603.983,175.121C609.829,163.428 616.954,152.832 625.358,143.332C633.762,133.832 643.628,126.158 654.955,120.312C666.282,114.466 679.253,111.543 693.869,111.543ZM411.058,578.51L411.058,-218.403L880.217,-218.403L880.217,-118.652L548.079,-118.652L548.079,478.759L897.756,478.759L897.756,578.51L411.058,578.51Z" style="fill:rgb(51,51,51);fill-rule:nonzero;"/>
    </g>
    <g transform="matrix(1.29096,0,0,1.29096,-602.449,355.388)">
        <path d="M2468.17,151.06L2410.88,151.06C2395.6,151.06 2382.04,148.004 2370.2,141.893C2358.36,135.782 2348.24,127.952 2339.84,118.404C2331.43,108.855 2324.18,98.161 2318.07,86.32C2311.95,74.48 2306.99,62.449 2303.17,50.227L2468.17,50.227L2468.17,151.06ZM2131.29,419.185L2131.29,151.06L2032.75,151.06L2032.75,75.435L2131.29,50.227L2131.29,-94.148L2264.21,-137.69L2264.21,422.837C2264.21,461.736 2272.42,493.005 2288.85,516.644C2305.27,540.282 2327.23,552.102 2354.73,552.102C2366.95,552.102 2380.13,550.765 2394.26,548.091C2408.39,545.418 2425.39,541.025 2445.25,534.914L2475.04,627.404C2446.02,637.442 2421.76,644.78 2402.28,649.417C2382.8,654.054 2363.52,656.373 2344.42,656.373C2274.91,656.373 2222.01,635.938 2185.72,595.07C2149.44,554.202 2131.29,495.574 2131.29,419.185Z" style="fill:rgb(51,51,51);fill-rule:nonzero;"/>
    </g>
    <defs>
        <radialGradient id="_Radial1" cx="0" cy="0" r="1" gradientUnits="userSpaceOnUse" gradientTransform="matrix(523.314,0,0,669.582,625.306,619.152)"><stop offset="0" style="stop-color:rgb(32,145,200);stop-opacity:1"/><stop offset="0.45" style="stop-color:rgb(131,216,243);stop-opacity:1"/><stop offset="1" style="stop-color:rgb(157,235,255);stop-opacity:1"/></radialGradient>
    </defs>
</svg>
